<svg xmlns="http://www.w3.org/2000/svg" width="1600" height="900" viewBox="0 0 1600 900" role="img" aria-labelledby="title desc">
<title id="title">Reliable knowledge agents need access, retrieval and eval</title><desc id="desc">Enterprise knowledge reference architecture: customer projects implement and validate runtime components. Sources: enterprise knowledge base example; rag-architecture, permission-model, rag-evaluation. Reference design.. 邴越 · FDE前线 · FDEChina.ai</desc>
<defs><marker id="arrow-blue" viewBox="0 0 10 10" refX="8" refY="5" markerWidth="6" markerHeight="6" orient="auto-start-reverse"><path d="M 0 0 L 10 5 L 0 10 z" fill="#285F9B"/></marker><marker id="arrow-orange" viewBox="0 0 10 10" refX="8" refY="5" markerWidth="6" markerHeight="6" orient="auto-start-reverse"><path d="M 0 0 L 10 5 L 0 10 z" fill="#E7652D"/></marker><marker id="arrow-green" viewBox="0 0 10 10" refX="8" refY="5" markerWidth="6" markerHeight="6" orient="auto-start-reverse"><path d="M 0 0 L 10 5 L 0 10 z" fill="#547568"/></marker></defs>
<g font-family="'PingFang SC', 'Noto Sans CJK SC', 'Microsoft YaHei', Arial, sans-serif">
<rect x="0" y="0" width="1600" height="900" rx="0" fill="#FFFCF7" stroke="#FFFCF7"/>
<text x="56" y="47" font-size="16" font-weight="600" fill="#657083" text-anchor="start" data-max-width="1488">FDE FRONTLINE / FDE SKILLS</text>
<text x="1544" y="47" font-size="16" font-weight="400" fill="#657083" text-anchor="end" data-max-width="1488">ENTERPRISE AI DELIVERY</text>
<text x="56" y="112" font-size="42" font-weight="650" fill="#17213A" text-anchor="start" data-max-width="1488">Reliable knowledge agents need access, retrieval and eval</text>
<text x="56" y="160" font-size="23" font-weight="400" fill="#657083" text-anchor="start" data-max-width="1488">Enterprise knowledge reference architecture: customer projects implement and validate runtime components</text>
<line x1="56" y1="192" x2="1544" y2="192" stroke="#D9DFE5" stroke-width="2"/><line x1="56" y1="192" x2="140" y2="192" stroke="#E7652D" stroke-width="5"/>
<text x="56" y="233" font-size="16" font-weight="650" fill="#E7652D" text-anchor="start" data-max-width="1488">REQUEST PATH</text><rect x="56" y="262" width="260" height="137" rx="0" fill="#FFFFFF" stroke="#D9DFE5"/><rect x="56" y="262" width="260" height="4" rx="0" fill="#E7652D" stroke="none"/><text x="74" y="313" font-size="22" font-weight="600" fill="#17213A" text-anchor="start" data-max-width="224">Business user</text><text x="74" y="357" font-size="18" font-weight="400" fill="#657083" text-anchor="start" data-max-width="224">Task and scope</text><path d="M 320 330 L 354 330" fill="none" stroke="#E7652D" stroke-width="2.5"  marker-end="url(#arrow-orange)"/><rect x="363" y="262" width="260" height="137" rx="0" fill="#FFFFFF" stroke="#D9DFE5"/><rect x="363" y="262" width="260" height="4" rx="0" fill="#E7652D" stroke="none"/><text x="381" y="313" font-size="22" font-weight="600" fill="#17213A" text-anchor="start" data-max-width="224">Identity &amp; access</text><text x="381" y="357" font-size="18" font-weight="400" fill="#657083" text-anchor="start" data-max-width="224">Tenant / role / object</text><path d="M 627 330 L 661 330" fill="none" stroke="#E7652D" stroke-width="2.5"  marker-end="url(#arrow-orange)"/><rect x="670" y="262" width="260" height="137" rx="0" fill="#FFFFFF" stroke="#D9DFE5"/><rect x="670" y="262" width="260" height="4" rx="0" fill="#E7652D" stroke="none"/><text x="688" y="313" font-size="22" font-weight="600" fill="#17213A" text-anchor="start" data-max-width="224">Task orchestration</text><text x="688" y="357" font-size="18" font-weight="400" fill="#657083" text-anchor="start" data-max-width="224">Context and escalation</text><path d="M 934 330 L 968 330" fill="none" stroke="#E7652D" stroke-width="2.5"  marker-end="url(#arrow-orange)"/><rect x="977" y="262" width="260" height="137" rx="0" fill="#FFFFFF" stroke="#D9DFE5"/><rect x="977" y="262" width="260" height="4" rx="0" fill="#E7652D" stroke="none"/><text x="995" y="313" font-size="22" font-weight="600" fill="#17213A" text-anchor="start" data-max-width="224">Retrieve &amp; cite</text><text x="995" y="357" font-size="18" font-weight="400" fill="#657083" text-anchor="start" data-max-width="224">Access and version filters</text><path d="M 1241 330 L 1275 330" fill="none" stroke="#E7652D" stroke-width="2.5"  marker-end="url(#arrow-orange)"/><rect x="1284" y="262" width="260" height="137" rx="0" fill="#EEF4EF" stroke="#D9DFE5"/><rect x="1284" y="262" width="260" height="4" rx="0" fill="#547568" stroke="none"/><text x="1302" y="313" font-size="22" font-weight="600" fill="#17213A" text-anchor="start" data-max-width="224">Answer or escalate</text><text x="1302" y="357" font-size="18" font-weight="400" fill="#657083" text-anchor="start" data-max-width="224">Evidence or abstention</text><rect x="56" y="479" width="858" height="218" rx="0" fill="#EDF3FA" stroke="none"/><text x="80" y="521" font-size="26" font-weight="600" fill="#17213A" text-anchor="start" data-max-width="810">Knowledge preparation: provenance, access and versions</text><rect x="80" y="556" width="240" height="106" rx="0" fill="#FFFFFF" stroke="none"/><text x="96" y="595" font-size="22" font-weight="600" fill="#17213A" text-anchor="start" data-max-width="208">Trusted sources</text><text x="96" y="635" font-size="16.5" font-weight="400" fill="#657083" text-anchor="start" data-max-width="208">Approved customer data</text><path d="M 324 609 L 356 609" fill="none" stroke="#285F9B" stroke-width="2.5"  marker-end="url(#arrow-blue)"/><rect x="365" y="556" width="240" height="106" rx="0" fill="#FFFFFF" stroke="none"/><text x="381" y="595" font-size="22" font-weight="600" fill="#17213A" text-anchor="start" data-max-width="208">Govern &amp; chunk</text><text x="381" y="635" font-size="16.5" font-weight="400" fill="#657083" text-anchor="start" data-max-width="208">Clean / version / access</text><path d="M 609 609 L 641 609" fill="none" stroke="#285F9B" stroke-width="2.5"  marker-end="url(#arrow-blue)"/><rect x="650" y="556" width="240" height="106" rx="0" fill="#FFFFFF" stroke="none"/><text x="666" y="595" font-size="22" font-weight="600" fill="#17213A" text-anchor="start" data-max-width="208">Searchable index</text><text x="666" y="635" font-size="16.5" font-weight="400" fill="#657083" text-anchor="start" data-max-width="208">Sources and metadata</text><path d="M 892 609 L 942 609 L 942 443 L 1107 443 L 1107 405" fill="none" stroke="#285F9B" stroke-width="2.5"  marker-end="url(#arrow-blue)"/><text x="804" y="432" font-size="18" font-weight="400" fill="#285F9B" text-anchor="start" data-max-width="285">Authorized retrieval context</text><rect x="970" y="479" width="574" height="218" rx="0" fill="#EEF4EF" stroke="none"/><text x="994" y="521" font-size="27" font-weight="600" fill="#17213A" text-anchor="start" data-max-width="526">Evaluation and observability</text><text x="994" y="569" font-size="21" font-weight="400" fill="#17213A" text-anchor="start" data-max-width="526">Offline eval → release gates → monitoring</text><text x="994" y="609" font-size="21" font-weight="400" fill="#17213A" text-anchor="start" data-max-width="526">Failure cases → regression → remediation</text><path d="M 1414 405 L 1414 471" fill="none" stroke="#547568" stroke-width="2.5" stroke-dasharray="7 6" marker-end="url(#arrow-green)"/><text x="1430" y="444" font-size="16" font-weight="400" fill="#547568" text-anchor="start" data-max-width="105">Evidence</text><rect x="56" y="729" width="1488" height="43" rx="0" fill="#FFF0E4" stroke="none"/><text x="80" y="758" font-size="22" font-weight="500" fill="#17213A" text-anchor="start" data-max-width="1440">Production gates: no unauthorized disclosure · traceable citations · abstention · human escalation</text>
<line x1="56" y1="804" x2="1544" y2="804" stroke="#D9DFE5" stroke-width="2"/>
<text x="56" y="831" font-size="15" font-weight="400" fill="#657083" text-anchor="start" data-max-width="1488">Sources: enterprise knowledge base example; rag-architecture, permission-model, rag-evaluation. Reference design.</text>
<text x="56" y="867" font-size="18" font-weight="600" fill="#17213A" text-anchor="start" data-max-width="1488">邴越 · FDE前线 · FDEChina.ai</text>
<text x="1544" y="867" font-size="16" font-weight="400" fill="#657083" text-anchor="end" data-max-width="1488">04 / 04</text>
</g></svg>
